<svg width="365" height="365" viewBox="0 0 365 365" fill="none" xmlns="http://www.w3.org/2000/svg">
  <path fill-rule="evenodd" clip-rule="evenodd" d="M295.546 325.781C337.851 292.359 365 240.6 365 182.5C365 81.708 283.292 0 182.5 0C153.1 0 125.324 6.9519 100.726 19.3015C104.567 18.9553 108.558 18.7822 112.698 18.7822H119.949C126.688 18.7822 131.448 21.4922 134.231 26.9121C137.161 32.332 138.626 44.2705 138.626 62.7275L138.406 70.8574C138.26 76.2773 138.187 81.6973 138.187 87.1172L137.747 103.377V119.637C137.747 138.826 141.116 148.421 147.854 148.421C148.587 148.274 152.322 146.736 159.061 143.807C179.422 134.725 196.487 130.184 210.257 130.184C236.038 130.184 254.129 140.511 264.529 161.165C271.414 175.228 274.856 209.798 274.856 264.876C274.856 286.116 275.589 299.373 277.054 304.646C278.665 309.773 282.84 315.12 289.578 320.687C291.99 322.636 293.979 324.335 295.546 325.781ZM270.369 342.493C263.598 342.75 255.353 342.879 245.633 342.879H237.942C221.976 342.879 213.992 339.656 213.992 333.211C213.992 331.746 215.896 328.084 219.705 322.225C223.514 316.219 226.004 309.48 227.176 302.01C228.348 294.539 228.934 274.983 228.934 243.343C228.934 211.702 227.469 191.78 224.539 183.577C214.432 170.394 203.226 162.337 190.921 159.407C174.075 159.407 160.599 165.413 150.491 177.425C143.021 186.214 139.285 206.282 139.285 237.63C139.285 268.831 140.018 288.753 141.482 297.396C142.947 305.892 146.097 313.655 150.931 320.687C155.911 327.571 158.401 331.819 158.401 333.431C158.401 338.704 143.533 341.341 113.797 341.341C104.718 341.341 97.0249 340.986 90.7178 340.276C117.681 355.995 149.039 365 182.5 365C214.355 365 244.303 356.839 270.369 342.493ZM70.3052 326.45C27.5142 293.051 0 240.989 0 182.5C0 124.466 27.0879 72.759 69.3098 39.3325C71.4338 40.9436 74.6174 43.2488 78.8604 46.248C83.5479 49.4707 86.624 54.5244 88.0889 61.4092C91.165 75.6182 92.7031 116.268 92.7031 183.357C92.7031 250.447 91.8975 287.508 90.2861 294.539C88.8213 301.57 84.9395 308.602 78.6406 315.633C74.5034 320.155 71.7251 323.76 70.3052 326.45Z" fill="#403D3C"/>
</svg>
